#N canvas 827 239 527 327 12;
#X obj 54 802 r ON;
#X obj 428 795 r ON;
#X obj 104 802 r 4th_time;
#X obj 489 792 r 4th_time;
#X obj 104 864 * 4;
#X obj 489 853 * 1;
#X floatatom 105 933 7 0 0 0 - - - 12;
#X floatatom 489 922 7 0 0 0 - - - 12;
#X obj 54 981 metro;
#X obj 122 981 s whole_time;
#X obj 428 970 metro;
#X obj 428 1034 bng 25 250 50 0 empty empty empty 17 7 0 10 #191919 #e1e1e1 #e1e1e1;
#X obj 54 1045 bng 25 250 50 0 empty empty empty 17 7 0 10 #191919 #e1e1e1 #e1e1e1;
#X obj 54 1116 s whole_note;
#X obj 428 1105 s 4th_note;
#X text 208 696 clock multiplication;
#X text 186 302 bpm, f 9;
#X obj 441 164 tgl 83 0 empty empty empty 17 7 0 10 #191919 #e1e1e1 #e1e1e1 0 1;
#X obj 443 281 s ON, f 8;
#X obj 144 1980 r ON;
#X obj 216 2042 loadbang;
#X obj 144 2042 sel 0;
#X obj 216 2110 bng 25 250 50 0 empty empty empty 17 7 0 10 #191919 #e1e1e1 #e1e1e1;
#X msg 217 2190 -1;
#X obj 317 1987 r whole_note;
#X obj 348 2042 bng 25 250 50 0 empty empty empty 17 7 0 10 #191919 #e1e1e1 #e1e1e1;
#X obj 359 2097 int 1;
#X floatatom 359 2158 5 0 0 0 - - - 12;
#X obj 359 2197 % 2;
#X obj 359 2241 + 1;
#X obj 359 2290 sel 1;
#X obj 359 2345 bng 25 250 50 0 empty empty empty 17 7 0 10 #191919 #e1e1e1 #e1e1e1;
#X obj 153 2241 r ON;
#X obj 153 2306 sel 0;
#X obj 215 2306 loadbang;
#X msg 216 2376 1;
#X obj 359 2415 tgl 25 0 empty empty empty 17 7 0 10 #191919 #e1e1e1 #e1e1e1 0 1;
#X obj 359 2476 s Chord;
#X obj 499 2127 + 1;
#X text 310 1928 clock / sequencer;
#X text 172 1223 bass;
#X obj 117 1296 r Chord;
#X obj 117 1357 tgl 25 0 empty empty empty 17 7 0 10 #191919 #e1e1e1 #e1e1e1 0 1;
#X obj 117 1416 sel 0;
#X obj 117 1479 bng 25 250 50 0 empty empty empty 17 7 0 10 #191919 #e1e1e1 #e1e1e1;
#X obj 229 1479 bng 25 250 50 0 empty empty empty 17 7 0 10 #191919 #e1e1e1 #e1e1e1;
#X msg 227 1547 87;
#X text 84 1546 c;
#X text 203 1546 f;
#X obj 117 1655 phasor~;
#X obj 117 1712 lop~ 100;
#X text 359 1237 envelope;
#X obj 333 1291 r ON;
#X obj 335 1331 sel 1;
#X obj 511 1299 r whole_time;
#X obj 511 1345 * 2;
#X obj 351 1390 bng 25 250 50 0 empty empty empty 17 7 0 10 #191919 #e1e1e1 #e1e1e1;
#X msg 351 1458 1 500;
#X obj 351 1583 line;
#X obj 117 1844 s~ Bass;
#X floatatom 511 1392 10 0 0 0 - - - 16;
#X obj 470 1504 delay;
#X obj 630 1382 r ON;
#X obj 641 1440 sel 0;
#X obj 110 368 loadbang, f 13;
#X obj 214 368 loadbang, f 12;
#X obj 145 512 /;
#X floatatom 145 548 5 0 0 0 - - - 0;
#X obj 214 465 t b f;
#X msg 145 398 60000;
#X msg 214 399 60, f 9;
#X floatatom 214 432 5 0 0 0 - - - 0;
#X obj 145 581 send 4th_time;
#X floatatom 2021 1501 12 0 0 0 - - - 16;
#X obj 2021 1614 phasor~;
#X obj 2121 1719 *~;
#X obj 2021 1760 *~ 0.5;
#X obj 2021 1923 send~ Ambient_Pad;
#X obj 2221 1458 bng 25 250 50 0 empty empty empty 17 7 0 10 #191919 #e1e1e1 #e1e1e1;
#X obj 2221 1614 line;
#X msg 2338 1546 0 500;
#X obj 2338 1499 delay;
#X obj 2358 1431 - 500;
#X floatatom 2358 1291 18 0 0 0 - - - 36;
#X obj 2440 1372 r ON;
#X obj 2440 1421 sel 0;
#X obj 814 84 r~ Bass;
#X obj 1014 88 r~ Ambient_Pad;
#X obj 987 381 *~ 0.5;
#X obj 1086 381 *~ 0.5;
#X obj 1030 466 dac~;
#X floatatom 117 1605 5 0 0 0 - - - 12;
#X floatatom 2125 1584 8 0 0 0 - - - 12;
#X obj 2125 1622 phasor~;
#X obj 511 1441 - 1000;
#X obj 617 791 r ON;
#X obj 678 792 r 4th_time;
#X floatatom 678 922 7 0 0 0 - - - 12;
#X obj 617 970 metro;
#X obj 617 1031 bng 25 250 50 0 empty empty empty 17 7 0 10 #191919 #e1e1e1 #e1e1e1;
#X obj 678 853 / 2;
#X obj 617 1105 s 8th_note;
#X obj 813 791 r ON;
#X obj 878 791 r 4th_time;
#X floatatom 878 925 7 0 0 0 - - - 12;
#X obj 817 970 metro;
#X obj 817 1034 bng 25 250 50 0 empty empty empty 17 7 0 10 #191919 #e1e1e1 #e1e1e1;
#X obj 817 1105 s 16th_note;
#X obj 878 853 / 4;
#X msg 117 1547 130;
#X obj 2670 1370 bng 25 250 50 0 empty empty empty 17 7 0 10 #191919 #e1e1e1 #e1e1e1;
#X floatatom 2702 1467 11 0 0 0 - - - 16;
#X obj 2702 1573 phasor~;
#X obj 2781 1673 *~;
#X obj 2702 1719 *~ 0.5;
#X obj 2904 1412 bng 25 250 50 0 empty empty empty 17 7 0 10 #191919 #e1e1e1 #e1e1e1;
#X obj 2907 1573 line;
#X obj 3063 1390 - 500;
#X floatatom 3063 1269 19 0 0 0 - - - 36;
#X obj 3122 1341 r ON;
#X obj 3122 1390 sel 0;
#X floatatom 2806 1535 8 0 0 0 - - - 12;
#X obj 2806 1573 phasor~;
#X obj 2702 1923 send~ Ambient_Pad2;
#X obj 1150 88 r~ Ambient_Pad2;
#X msg 2221 1538 1 500;
#X floatatom 499 2306 5 0 0 0 - - - 12;
#X obj 499 2253 + 1;
#X obj 499 2409 bng 25 250 50 0 empty empty empty 17 7 0 10 #191919 #e1e1e1 #e1e1e1;
#X obj 499 2357 sel 1;
#X obj 3423 577 bng 25 250 50 0 empty empty empty 17 7 0 10 #191919 #e1e1e1 #e1e1e1;
#X obj 3063 1224 / 4;
#X obj 3398 1316 bng 25 250 50 0 empty empty empty 17 7 0 10 #191919 #e1e1e1 #e1e1e1;
#X floatatom 3487 1497 12 0 0 0 - - - 16;
#X obj 3487 1593 phasor~;
#X obj 3566 1693 *~;
#X obj 3720 1361 bng 25 250 50 0 empty empty empty 17 7 0 10 #191919 #e1e1e1 #e1e1e1;
#X obj 3692 1593 line;
#X msg 3804 1525 0 500;
#X obj 3848 1410 - 500;
#X floatatom 3848 1261 19 0 0 0 - - - 36;
#X obj 3907 1361 r ON;
#X obj 3907 1410 sel 0;
#X floatatom 3591 1555 8 0 0 0 - - - 12;
#X obj 3591 1593 phasor~;
#X obj 3591 1514 * 1.001;
#X msg 3687 1517 1 500;
#X obj 3906 1480 delay 50;
#X obj 3804 1478 delay 100;
#X obj 3487 1923 send~ Ambient_Pad3;
#X obj 1294 88 r~ Ambient_Pad3;
#X obj 3848 1199 / 2;
#X obj 1779 1076 r 16th_note;
#X obj 2021 1673 lop~ 250;
#X obj 3487 1739 *~ 0.3;
#X obj 117 1789 *~ 0.25;
#X obj 636 1503 delay 500;
#X obj 3487 1632 lop~ 500;
#X msg 3019 1505 0 500;
#X obj 2702 1632 lop~ 100;
#X msg 467 1567 0 1000;
#X obj 1906 1051 random 100;
#X floatatom 1906 1107 5 0 0 0 - - - 12;
#X obj 1779 1185 bng 25 250 50 0 empty empty empty 17 7 0 10 #191919 #e1e1e1 #e1e1e1;
#X obj 1779 1283 spigot;
#X obj 1868 1233 tgl 25 0 empty empty empty 17 7 0 10 #191919 #e1e1e1 #e1e1e1 0 1;
#X obj 3297 1224 r 16th_note;
#X obj 3148 580 bng 25 250 50 0 empty empty empty 17 7 0 10 #191919 #e1e1e1 #e1e1e1;
#X obj 2692 1204 sel 1;
#X obj 3471 1170 sel 2;
#X obj 2131 1228 sel 0;
#X obj 2131 1277 tgl 25 0 empty empty empty 17 7 0 10 #191919 #e1e1e1 #e1e1e1 0 1;
#X obj 2692 1253 tgl 25 0 empty empty empty 17 7 0 10 #191919 #e1e1e1 #e1e1e1 0 1;
#X obj 3471 1219 tgl 25 0 empty empty empty 17 7 0 10 #191919 #e1e1e1 #e1e1e1 0 1;
#X obj 2102 1356 spigot;
#X obj 2670 1318 spigot;
#X obj 3447 1280 spigot;
#X obj 1963 1232 tgl 25 0 empty empty empty 17 7 0 10 #191919 #e1e1e1 #e1e1e1 0 1;
#X obj 1868 1170 < 25, f 6;
#X obj 1963 1169 > 50, f 6;
#X obj 2021 1283 spigot;
#X obj 2021 1089 r 4th_note;
#X obj 1906 969 bng 25 250 50 0 empty empty empty 17 7 0 10 #191919 #e1e1e1 #e1e1e1;
#X obj 3423 681 random 8000;
#X obj 4305 1365 bng 25 250 50 0 empty empty empty 17 7 0 10 #191919 #e1e1e1 #e1e1e1;
#X floatatom 4216 1513 8 0 0 0 - - - 16;
#X obj 4216 1609 phasor~;
#X obj 4295 1709 *~;
#X obj 4418 1448 bng 25 250 50 0 empty empty empty 17 7 0 10 #191919 #e1e1e1 #e1e1e1;
#X obj 4421 1609 line;
#X msg 4533 1541 0 500;
#X obj 4586 1426 - 500;
#X floatatom 4586 1320 19 0 0 0 - - - 36;
#X obj 4636 1377 r ON;
#X obj 4636 1426 sel 0;
#X floatatom 4320 1571 8 0 0 0 - - - 12;
#X obj 4320 1609 phasor~;
#X obj 4320 1530 * 1.001;
#X msg 4416 1533 1 500;
#X obj 4216 1923 send~ Ambient_Pad4;
#X obj 1294 143 r~ Ambient_Pad4;
#X obj 3423 739 + 500;
#X obj 2806 1501 / 2;
#X obj 2676 1431 Chords_Scales;
#X obj 4533 1494 delay 1000;
#X obj 4636 1494 delay 500;
#X obj 4216 1755 *~ 0.5;
#X obj 4306 1263 tgl 25 0 empty empty empty 17 7 0 10 #191919 #e1e1e1 #e1e1e1 0 1;
#X obj 4305 1320 spigot;
#X obj 4306 1209 sel 3;
#X obj 2600 1269 r 8th_note;
#X obj 4182 1468 / 4;
#X obj 4586 981 random 100;
#X floatatom 4586 1037 5 0 0 0 - - - 12;
#X obj 4399 1115 bng 25 250 50 0 empty empty empty 17 7 0 10 #191919 #e1e1e1 #e1e1e1;
#X obj 4442 1213 spigot;
#X obj 4548 1163 tgl 25 0 empty empty empty 17 7 0 10 #191919 #e1e1e1 #e1e1e1 0 1;
#X obj 4643 1162 tgl 25 0 empty empty empty 17 7 0 10 #191919 #e1e1e1 #e1e1e1 0 1;
#X obj 4548 1100 < 25, f 6;
#X obj 4643 1099 > 50, f 6;
#X obj 4701 1213 spigot;
#X obj 4701 1019 r 4th_note;
#X obj 4586 899 bng 25 250 50 0 empty empty empty 17 7 0 10 #191919 #e1e1e1 #e1e1e1;
#X obj 4399 1006 r 8th_note;
#X obj 4701 1114 bng 25 250 50 0 empty empty empty 17 7 0 10 #191919 #e1e1e1 #e1e1e1;
#X obj 2021 1184 bng 25 250 50 0 empty empty empty 17 7 0 10 #191919 #e1e1e1 #e1e1e1;
#X obj 2673 1401 * 4;
#X obj 3019 1458 delay 200;
#X obj 3121 1460 delay 200;
#X msg 2904 1505 1 50;
#X obj 2125 1543 * 3.001;
#X obj 2440 1501 delay 50;
#X obj 499 2477 s Double_Chord;
#X obj 3423 524 r Double_Chord;
#X obj 1906 916 r Double_Chord;
#X obj 4586 846 r Double_Chord;
#X obj 499 2208 % 4;
#X floatatom 667 2306 5 0 0 0 - - - 12;
#X obj 667 2253 + 1;
#X obj 667 2409 bng 25 250 50 0 empty empty empty 17 7 0 10 #191919 #e1e1e1 #e1e1e1;
#X obj 667 2357 sel 1;
#X obj 667 2477 s Quad_Chord;
#X obj 667 2208 % 8;
#X obj 4216 1668 lop~ 200;
#X obj 3148 524 r Chord;
#X obj 968 280 giga.rev~;
#X floatatom 5142 1502 12 0 0 0 - - - 16;
#X obj 5344 1440 bng 25 250 50 0 empty empty empty 17 7 0 10 #191919 #e1e1e1 #e1e1e1;
#X obj 5344 1601 line;
#X floatatom 5518 1277 19 0 0 0 - - - 36;
#X obj 5591 1364 r ON;
#X obj 5591 1413 sel 0;
#X floatatom 5248 1611 8 0 0 0 - - - 12;
#X obj 5248 1649 phasor~;
#X obj 5100 1227 tgl 25 0 empty empty empty 17 7 0 10 #191919 #e1e1e1 #e1e1e1 0 1;
#X obj 5075 1288 spigot;
#X obj 5142 1933 send~ Ambient_Pad5;
#X obj 1294 196 r~ Ambient_Pad5;
#X obj 3148 739 random 5;
#X obj 5518 1137 loadbang;
#X obj 3344 1355 Chords_Scales;
#X obj 5142 1386 Chords_Scales;
#X obj 2021 1431 Chords_Scales;
#X obj 5341 868 random 100;
#X floatatom 5341 924 5 0 0 0 - - - 12;
#X obj 5142 1002 bng 25 250 50 0 empty empty empty 17 7 0 10 #191919 #e1e1e1 #e1e1e1;
#X obj 5142 1100 spigot;
#X obj 5303 1050 tgl 25 0 empty empty empty 17 7 0 10 #191919 #e1e1e1 #e1e1e1 0 1;
#X obj 5388 1050 tgl 25 0 empty empty empty 17 7 0 10 #191919 #e1e1e1 #e1e1e1 0 1;
#X obj 5456 1100 spigot;
#X obj 5456 906 r 4th_note;
#X obj 5341 786 bng 25 250 50 0 empty empty empty 17 7 0 10 #191919 #e1e1e1 #e1e1e1;
#X obj 5142 893 r 8th_note;
#X obj 5456 1001 bng 25 250 50 0 empty empty empty 17 7 0 10 #191919 #e1e1e1 #e1e1e1;
#X obj 5341 733 r Double_Chord;
#X obj 5075 1333 bng 25 250 50 0 empty empty empty 17 7 0 10 #191919 #e1e1e1 #e1e1e1;
#X obj 5388 991 < 50, f 6;
#X obj 5303 991 > 15, f 6;
#X obj 5100 1178 sel 4;
#X obj 5142 1288 spigot;
#X obj 5141 1657 phasor~;
#X obj 5142 1781 *~;
#X obj 5248 1578 / 2.002;
#X obj 5248 1541 - 1;
#X obj 5591 1479 delay 500;
#X obj 5472 1479 delay 100;
#X obj 4980 1244 r whole_note;
#X msg 5344 1533 1 500;
#X msg 5472 1533 0 1000;
#X msg 5518 1168 400, f 10;
#X obj 4769 1222 loadbang;
#X msg 4769 1253 2000, f 10;
#X obj 5089 1458 * 6;
#X obj 5142 1738 *~;
#X floatatom 5306 1707 12 0 0 0 empty - - 36;
#X obj 5142 1458 / 2;
#X obj 5142 1872 *~ 0.4;
#X obj 1294 232 revdelay~ 8000;
#X connect 0 0 8 0;
#X connect 1 0 10 0;
#X connect 2 0 4 0;
#X connect 3 0 5 0;
#X connect 4 0 6 0;
#X connect 5 0 7 0;
#X connect 6 0 8 1;
#X connect 6 0 9 0;
#X connect 7 0 10 1;
#X connect 8 0 12 0;
#X connect 10 0 11 0;
#X connect 11 0 14 0;
#X connect 12 0 13 0;
#X connect 17 0 18 0;
#X connect 19 0 21 0;
#X connect 20 0 22 0;
#X connect 21 0 22 0;
#X connect 22 0 23 0;
#X connect 23 0 26 0;
#X connect 24 0 25 0;
#X connect 25 0 26 0;
#X connect 26 0 27 0;
#X connect 26 0 38 0;
#X connect 27 0 28 0;
#X connect 27 0 236 0;
#X connect 27 0 242 0;
#X connect 28 0 29 0;
#X connect 29 0 30 0;
#X connect 30 0 31 0;
#X connect 31 0 36 0;
#X connect 32 0 33 0;
#X connect 33 0 35 0;
#X connect 34 0 35 0;
#X connect 35 0 36 0;
#X connect 36 0 37 0;
#X connect 38 0 26 1;
#X connect 41 0 42 0;
#X connect 42 0 43 0;
#X connect 43 0 44 0;
#X connect 43 1 45 0;
#X connect 44 0 109 0;
#X connect 45 0 46 0;
#X connect 46 0 91 0;
#X connect 49 0 50 0;
#X connect 50 0 155 0;
#X connect 52 0 53 0;
#X connect 53 0 56 0;
#X connect 54 0 55 0;
#X connect 55 0 60 0;
#X connect 56 0 57 0;
#X connect 57 0 58 0;
#X connect 58 0 155 1;
#X connect 60 0 94 0;
#X connect 61 0 160 0;
#X connect 62 0 63 0;
#X connect 63 0 156 0;
#X connect 64 0 69 0;
#X connect 65 0 70 0;
#X connect 66 0 67 0;
#X connect 67 0 72 0;
#X connect 68 0 66 0;
#X connect 68 1 66 1;
#X connect 69 0 66 0;
#X connect 70 0 71 0;
#X connect 71 0 68 0;
#X connect 73 0 74 0;
#X connect 73 0 230 0;
#X connect 74 0 153 0;
#X connect 75 0 76 0;
#X connect 76 0 77 0;
#X connect 78 0 81 0;
#X connect 78 0 125 0;
#X connect 79 0 75 1;
#X connect 80 0 79 0;
#X connect 81 0 80 0;
#X connect 82 0 81 1;
#X connect 83 0 82 0;
#X connect 84 0 85 0;
#X connect 85 0 231 0;
#X connect 86 0 245 0;
#X connect 87 0 245 0;
#X connect 88 0 90 0;
#X connect 89 0 90 1;
#X connect 91 0 49 0;
#X connect 92 0 93 0;
#X connect 93 0 153 0;
#X connect 94 0 61 1;
#X connect 95 0 98 0;
#X connect 96 0 100 0;
#X connect 97 0 98 1;
#X connect 98 0 99 0;
#X connect 99 0 101 0;
#X connect 100 0 97 0;
#X connect 102 0 105 0;
#X connect 103 0 108 0;
#X connect 104 0 105 1;
#X connect 105 0 106 0;
#X connect 106 0 107 0;
#X connect 108 0 104 0;
#X connect 109 0 91 0;
#X connect 110 0 226 0;
#X connect 111 0 112 0;
#X connect 111 0 202 0;
#X connect 112 0 159 0;
#X connect 113 0 114 0;
#X connect 114 0 123 0;
#X connect 115 0 229 0;
#X connect 115 0 227 0;
#X connect 116 0 113 1;
#X connect 117 0 227 1;
#X connect 118 0 117 0;
#X connect 119 0 120 0;
#X connect 120 0 228 0;
#X connect 121 0 122 0;
#X connect 122 0 159 0;
#X connect 124 0 245 0;
#X connect 125 0 79 0;
#X connect 126 0 129 0;
#X connect 127 0 126 0;
#X connect 128 0 232 0;
#X connect 129 0 128 0;
#X connect 130 0 183 0;
#X connect 131 0 118 0;
#X connect 132 0 260 0;
#X connect 133 0 134 0;
#X connect 133 0 145 0;
#X connect 134 0 157 0;
#X connect 135 0 154 0;
#X connect 136 0 146 0;
#X connect 136 0 148 0;
#X connect 137 0 135 1;
#X connect 138 0 137 0;
#X connect 139 0 148 1;
#X connect 140 0 139 0;
#X connect 141 0 142 0;
#X connect 142 0 147 0;
#X connect 143 0 144 0;
#X connect 144 0 157 0;
#X connect 145 0 143 0;
#X connect 146 0 137 0;
#X connect 147 0 138 0;
#X connect 148 0 138 0;
#X connect 150 0 245 0;
#X connect 151 0 140 0;
#X connect 152 0 163 0;
#X connect 153 0 75 0;
#X connect 154 0 149 0;
#X connect 155 0 59 0;
#X connect 156 0 160 0;
#X connect 157 0 135 0;
#X connect 158 0 116 0;
#X connect 159 0 113 0;
#X connect 160 0 58 0;
#X connect 161 0 162 0;
#X connect 162 0 178 0;
#X connect 162 0 179 0;
#X connect 163 0 164 0;
#X connect 164 0 174 0;
#X connect 165 0 164 1;
#X connect 166 0 176 0;
#X connect 167 0 258 0;
#X connect 168 0 172 0;
#X connect 169 0 173 0;
#X connect 170 0 171 0;
#X connect 171 0 174 1;
#X connect 172 0 175 1;
#X connect 173 0 176 1;
#X connect 174 0 78 0;
#X connect 174 0 262 0;
#X connect 175 0 110 0;
#X connect 175 0 115 0;
#X connect 176 0 132 0;
#X connect 176 0 136 0;
#X connect 177 0 180 1;
#X connect 178 0 165 0;
#X connect 179 0 177 0;
#X connect 180 0 174 0;
#X connect 181 0 225 0;
#X connect 182 0 161 0;
#X connect 183 0 201 0;
#X connect 184 0 188 0;
#X connect 185 0 186 0;
#X connect 185 0 197 0;
#X connect 186 0 243 0;
#X connect 187 0 206 0;
#X connect 188 0 198 0;
#X connect 188 0 204 0;
#X connect 189 0 187 1;
#X connect 190 0 189 0;
#X connect 191 0 204 1;
#X connect 192 0 191 0;
#X connect 193 0 194 0;
#X connect 194 0 205 0;
#X connect 195 0 196 0;
#X connect 196 0 243 0;
#X connect 197 0 195 0;
#X connect 198 0 189 0;
#X connect 200 0 89 0;
#X connect 200 0 88 0;
#X connect 201 0 131 0;
#X connect 201 0 151 0;
#X connect 201 0 83 0;
#X connect 202 0 121 0;
#X connect 203 0 111 0;
#X connect 204 0 190 0;
#X connect 205 0 190 0;
#X connect 206 0 199 0;
#X connect 207 0 208 1;
#X connect 208 0 184 0;
#X connect 209 0 207 0;
#X connect 210 0 175 0;
#X connect 211 0 185 0;
#X connect 212 0 213 0;
#X connect 213 0 218 0;
#X connect 213 0 219 0;
#X connect 214 0 215 0;
#X connect 215 0 208 0;
#X connect 216 0 215 1;
#X connect 217 0 220 1;
#X connect 218 0 216 0;
#X connect 219 0 217 0;
#X connect 220 0 208 0;
#X connect 221 0 224 0;
#X connect 222 0 212 0;
#X connect 223 0 214 0;
#X connect 224 0 220 0;
#X connect 225 0 180 0;
#X connect 226 0 203 0;
#X connect 227 0 158 0;
#X connect 228 0 158 0;
#X connect 229 0 116 0;
#X connect 230 0 92 0;
#X connect 231 0 80 0;
#X connect 233 0 130 0;
#X connect 234 0 182 0;
#X connect 235 0 222 0;
#X connect 236 0 127 0;
#X connect 237 0 240 0;
#X connect 238 0 237 0;
#X connect 239 0 241 0;
#X connect 240 0 239 0;
#X connect 242 0 238 0;
#X connect 243 0 187 0;
#X connect 244 0 167 0;
#X connect 245 0 88 0;
#X connect 245 1 89 0;
#X connect 246 0 283 0;
#X connect 246 0 280 0;
#X connect 247 0 287 0;
#X connect 247 0 285 0;
#X connect 248 0 294 0;
#X connect 249 0 285 1;
#X connect 250 0 251 0;
#X connect 251 0 284 0;
#X connect 252 0 253 0;
#X connect 253 0 293 1;
#X connect 254 0 255 1;
#X connect 255 0 247 0;
#X connect 255 0 275 0;
#X connect 257 0 297 0;
#X connect 258 0 168 0;
#X connect 258 0 169 0;
#X connect 258 0 209 0;
#X connect 258 0 170 0;
#X connect 258 0 278 0;
#X connect 259 0 289 0;
#X connect 260 0 133 0;
#X connect 261 0 295 0;
#X connect 262 0 73 0;
#X connect 263 0 264 0;
#X connect 264 0 276 0;
#X connect 264 0 277 0;
#X connect 265 0 266 0;
#X connect 266 0 279 0;
#X connect 267 0 266 1;
#X connect 268 0 269 1;
#X connect 269 0 279 0;
#X connect 270 0 273 0;
#X connect 271 0 263 0;
#X connect 272 0 265 0;
#X connect 273 0 269 0;
#X connect 274 0 271 0;
#X connect 275 0 261 0;
#X connect 276 0 268 0;
#X connect 277 0 267 0;
#X connect 278 0 254 0;
#X connect 280 0 293 0;
#X connect 281 0 296 0;
#X connect 282 0 252 0;
#X connect 283 0 282 0;
#X connect 284 0 288 0;
#X connect 285 0 288 0;
#X connect 286 0 255 0;
#X connect 287 0 248 0;
#X connect 288 0 248 0;
#X connect 289 0 249 0;
#X connect 290 0 291 0;
#X connect 291 0 192 0;
#X connect 293 0 281 0;
#X connect 294 0 281 1;
#X connect 295 0 246 0;
#X connect 296 0 256 0;
#X connect 297 0 245 0;
