#N canvas 827 239 527 327 12;
#X floatatom 392 591 5 0 0 0 - - - 12;
#X obj 391 631 mtof;
#X obj 388 744 outlet;
#X text 532 395 TODO more chord progressions;
#X obj 248 471 sel 1;
#X obj 305 471 sel 2;
#X obj 362 471 sel 3;
#X obj 419 471 sel 4;
#X obj 476 471 sel 5;
#X obj 533 471 sel 6;
#X obj 590 471 sel 7;
#X obj 190 471 sel 0;
#X msg 190 520 60, f 6;
#X msg 247 520 62, f 6;
#X msg 304 520 64, f 6;
#X msg 361 520 65, f 6;
#X msg 418 520 67, f 6;
#X msg 475 520 69, f 6;
#X msg 532 520 71, f 6;
#X obj 348 313 inlet;
#X obj 348 364 bng 25 250 50 0 empty empty empty 17 7 0 10 #191919 #e1e1e1 #e1e1e1;
#X obj 348 425 random 8;
#X msg 589 520 74, f 6;
#X floatatom 392 689 5 0 0 0 - - - 12;
#X connect 0 0 1 0;
#X connect 1 0 23 0;
#X connect 4 0 13 0;
#X connect 5 0 14 0;
#X connect 6 0 15 0;
#X connect 7 0 16 0;
#X connect 8 0 17 0;
#X connect 9 0 18 0;
#X connect 10 0 22 0;
#X connect 11 0 12 0;
#X connect 12 0 0 0;
#X connect 13 0 0 0;
#X connect 14 0 0 0;
#X connect 15 0 0 0;
#X connect 16 0 0 0;
#X connect 17 0 0 0;
#X connect 18 0 0 0;
#X connect 19 0 20 0;
#X connect 20 0 21 0;
#X connect 21 0 4 0;
#X connect 21 0 5 0;
#X connect 21 0 6 0;
#X connect 21 0 11 0;
#X connect 21 0 7 0;
#X connect 21 0 8 0;
#X connect 21 0 9 0;
#X connect 21 0 10 0;
#X connect 22 0 0 0;
#X connect 23 0 2 0;
