#N canvas 100 100 600 500 10;
#X obj 50 573 dac~;
#X obj 50 523 *~ 0.5;
#X text 40 2 BASS DRONE;
#X obj 50 124 osc~ 60;
#X obj 150 147 osc~ 60.5;
#X obj 250 169 osc~ 59.7;
#X obj 50 207 *~ 0.33;
#X obj 150 229 *~ 0.33;
#X obj 250 252 *~ 0.33;
#X obj 50 252 +~;
#X obj 50 320 +~;
#X obj 50 365 lop~ 800;
#X obj 350 192 phasor~ 30;
#X obj 350 274 *~ 0.2;
#X obj 150 415 +~;
#X floatatom 350 75 5 30 120 0 - - - 0;
#X obj 350 113 sig~;
#X obj 50 472 *~;
#X obj 350 342 osc~ 0.1;
#X obj 350 387 *~ 0.3;
#X obj 350 436 +~ 0.7;
#X msg 348 36 60, f 5;
#X obj 450 9 tgl 126 0 empty empty ON/OFF 17 7 0 10 #fcfcfc #000000 #000000 0 1;
#X obj 450 199 metro 100;
#X floatatom 250 36 5 100 5000 0 - - - 0;
#X msg 250 85 800, f 7;
#X obj 137 523 hsl 128 15 0 1 0 0 empty empty volume -2 -8 0 10 #fcfcfc #000000 #000000 0 1;
#X connect 1 0 0 0;
#X connect 1 0 0 1;
#X connect 3 0 6 0;
#X connect 4 0 7 0;
#X connect 5 0 8 0;
#X connect 6 0 9 0;
#X connect 7 0 9 1;
#X connect 8 0 10 0;
#X connect 9 0 10 1;
#X connect 10 0 11 0;
#X connect 11 0 14 0;
#X connect 12 0 13 0;
#X connect 13 0 14 1;
#X connect 14 0 17 0;
#X connect 15 0 16 0;
#X connect 16 0 3 0;
#X connect 16 0 12 0;
#X connect 17 0 1 0;
#X connect 18 0 19 0;
#X connect 19 0 20 0;
#X connect 20 0 17 1;
#X connect 21 0 15 0;
#X connect 22 0 23 0;
#X connect 23 0 3 0;
#X connect 25 0 24 0;
#X connect 26 0 1 1;
