#N canvas 827 239 527 327 12;
#X obj 753 1258 graph~;
#X obj 143 1054 bl.saw~ 2;
#X obj 361 1127 saw~ 40;
#X obj 658 56 netreceive -u 11999;
#X obj 1987 559 osc~;
#X obj 1932 753 dac~;
#X msg 2250 347 400, f 6;
#X msg 2376 347 400, f 6;
#X obj 2102 618 *~ 0.75, f 9;
#X obj 2102 576 osc~, f 9;
#X obj 2210 576 osc~, f 9;
#X obj 2210 522 * 8, f 9;
#X obj 2428 575 osc~, f 9;
#X obj 2210 618 *~ 0.5, f 8;
#X floatatom 1868 423 8 0 0 0 empty - - 36;
#X obj 2428 522 * 4, f 9;
#X obj 2428 618 *~ 0.7, f 8;
#X obj 1911 358 hsl 128 17 0 127 0 0 empty empty empty -2 -8 0 10 #191919 #e1e1e1 #e1e1e1 0 1;
#X obj 2102 522 * 0.2, f 9;
#X obj 2338 522 * 0.16, f 9;
#X obj 2338 618 *~ 0.05, f 9;
#X obj 2338 575 osc~, f 9;
#X msg 2144 347 27, f 5;
#X msg 2468 347 400, f 6;
#X text 551 339 message, f 13;
#X obj 658 134 list trim, f 12;
#X floatatom 684 378 7 0 0 0 - - - 12;
#X floatatom 710 410 5 0 0 0 - - - 12;
#X floatatom 736 444 6 0 0 0 - - - 12;
#X floatatom 763 471 5 0 0 0 - - - 12;
#X floatatom 658 350 5 0 0 0 - - - 12;
#X obj 236 1054 saw~ 400;
#X obj 314 1345 osc~;
#X floatatom 790 511 5 0 0 0 - - - 12;
#X obj 314 1237 *~;
#X obj 143 979 osc~;
#X obj 1938 694 *~ 0.2;
#X obj 236 1127 osc~;
#X obj 637 592 line~;
#X obj 361 1185 echo.rev~;
#X obj 237 1185 bl.saw~ 400;
#X obj 518 495 env~;
#X obj 314 1296 phaser~, f 12;
#X obj 519 814 bl.saw~ 4;
#X obj 893 1176 dac~;
#X obj 658 181 unpack f f f f f f f, f 22;
#X floatatom 827 543 5 0 0 0 - - - 12;
#X obj 895 897 echo.rev~;
#X obj 758 910 phaser~, f 12;
#X obj 931 652 line~;
#X obj 426 602 osc~ 4;
#X obj 518 686 saw~ 10;
#X obj 519 739 osc~ 10;
#X obj 637 739 osc~ 10;
#X obj 637 814 saw~ 12;
#X obj 637 885 osc~ 12;
#X obj 327 686 bl.saw~ 1;
#X obj 618 471 pack f 50;
#X text 857 496 interval [0-1];
#X text 837 462 opacity [0-255];
#X text 817 429 amplitude [0-20], f 15;
#X text 798 398 violence [0-20], f 14;
#X text 786 370 time [[++], f 9;
#X obj 881 1121 free.rev~;
#X msg 1082 952 wet \$1;
#X msg 962 952 roomsize \$1;
#X obj 766 1083 lop~ 200;
#X msg 1158 977 width \$1, f 9;
#X obj 1038 814 / 40;
#X obj 753 863 / 510;
#X obj 828 808 / 510;
#X obj 753 977 *~ 4, f 6;
#X obj 853 985 *~ 4, f 7;
#X obj 778 1040 hip~ 50;
#X text 894 528 spread [20-0];
#X connect 1 0 37 0;
#X connect 2 0 39 0;
#X connect 3 0 25 0;
#X connect 4 0 36 0;
#X connect 6 0 11 1;
#X connect 7 0 19 1;
#X connect 8 0 36 0;
#X connect 9 0 8 0;
#X connect 10 0 13 0;
#X connect 11 0 10 0;
#X connect 12 0 16 0;
#X connect 13 0 36 0;
#X connect 14 0 4 0;
#X connect 14 0 11 0;
#X connect 14 0 15 0;
#X connect 14 0 18 0;
#X connect 14 0 19 0;
#X connect 15 0 12 0;
#X connect 17 0 14 0;
#X connect 18 0 9 0;
#X connect 19 0 21 0;
#X connect 20 0 36 0;
#X connect 21 0 20 0;
#X connect 22 0 18 1;
#X connect 23 0 15 1;
#X connect 25 0 45 0;
#X connect 27 0 53 1;
#X connect 28 0 57 1;
#X connect 29 0 57 0;
#X connect 29 0 69 0;
#X connect 29 0 70 0;
#X connect 29 0 48 0;
#X connect 31 0 37 0;
#X connect 33 0 38 0;
#X connect 33 0 67 0;
#X connect 33 0 64 0;
#X connect 33 0 48 1;
#X connect 34 0 42 0;
#X connect 35 0 1 0;
#X connect 37 0 40 0;
#X connect 38 0 56 1;
#X connect 39 0 34 1;
#X connect 40 0 34 0;
#X connect 42 0 32 0;
#X connect 43 0 55 0;
#X connect 45 0 30 0;
#X connect 45 1 26 0;
#X connect 45 2 27 0;
#X connect 45 3 28 0;
#X connect 45 4 29 0;
#X connect 45 5 33 0;
#X connect 45 6 46 0;
#X connect 46 0 38 1;
#X connect 46 0 49 0;
#X connect 46 0 68 0;
#X connect 47 0 72 0;
#X connect 48 0 71 0;
#X connect 48 0 72 0;
#X connect 49 0 47 0;
#X connect 50 0 51 1;
#X connect 50 0 56 0;
#X connect 51 0 52 0;
#X connect 52 0 43 0;
#X connect 53 0 43 1;
#X connect 53 0 54 0;
#X connect 54 0 55 0;
#X connect 55 0 48 0;
#X connect 55 0 71 0;
#X connect 55 0 72 0;
#X connect 56 0 52 0;
#X connect 57 0 50 1;
#X connect 63 0 44 0;
#X connect 63 0 0 0;
#X connect 63 1 44 1;
#X connect 64 0 63 0;
#X connect 65 0 63 0;
#X connect 66 0 63 0;
#X connect 66 0 63 1;
#X connect 67 0 63 0;
#X connect 68 0 65 0;
#X connect 71 0 73 0;
#X connect 72 0 73 0;
#X connect 73 0 66 0;
