#N canvas 827 239 527 327 12;
#X obj 1035 1176 graph~;
#X obj 658 56 netreceive -u 11999;
#X obj 1797 933 osc~;
#X obj 1742 1127 dac~;
#X msg 2060 721 400, f 6;
#X msg 2186 721 400, f 6;
#X obj 1912 992 *~ 0.75, f 9;
#X obj 1912 950 osc~, f 9;
#X obj 2020 950 osc~, f 9;
#X obj 2020 896 * 8, f 9;
#X obj 2238 949 osc~, f 9;
#X obj 2020 992 *~ 0.5, f 8;
#X floatatom 1678 797 8 0 0 0 empty - - 36;
#X obj 2238 896 * 4, f 9;
#X obj 2238 992 *~ 0.7, f 8;
#X obj 1739 732 hsl 128 17 0 127 0 0 empty empty empty -2 -8 0 10 #191919 #e1e1e1 #e1e1e1 0 1;
#X obj 1912 896 * 0.2, f 9;
#X obj 2148 896 * 0.16, f 9;
#X obj 2148 992 *~ 0.05, f 9;
#X obj 2148 949 osc~, f 9;
#X msg 1954 721 27, f 5;
#X msg 2278 721 400, f 6;
#X text 551 335 message, f 13;
#X obj 658 134 list trim, f 12;
#X floatatom 684 378 7 0 0 0 - - - 12;
#X floatatom 710 410 5 0 0 0 - - - 12;
#X floatatom 736 444 6 0 0 0 - - - 12;
#X floatatom 763 471 5 0 0 0 - - - 12;
#X floatatom 658 350 5 0 0 0 - - - 12;
#X floatatom 790 511 5 0 0 0 - - - 12;
#X obj 1748 1068 *~ 0.2;
#X obj 637 592 line~;
#X obj 519 814 bl.saw~ 4;
#X obj 893 1176 dac~;
#X obj 658 181 unpack f f f f f f f, f 22;
#X floatatom 827 543 5 0 0 0 - - - 12;
#X obj 895 897 echo.rev~;
#X obj 758 910 phaser~, f 12;
#X obj 895 839 line~;
#X obj 426 602 osc~ 4;
#X obj 518 686 saw~ 10;
#X obj 519 739 osc~ 10;
#X obj 637 739 osc~ 10;
#X obj 637 814 saw~ 12;
#X obj 637 885 osc~ 12;
#X obj 327 686 bl.saw~ 1;
#X text 857 492 interval [0-1];
#X text 837 458 opacity [0-255];
#X text 798 394 violence [0-20], f 14;
#X text 786 366 time [[++], f 11;
#X obj 881 1121 free.rev~;
#X msg 1082 952 wet \$1;
#X msg 962 952 roomsize \$1;
#X msg 1158 977 width \$1, f 9;
#X text 894 524 spread [20-0];
#X obj 739 985 *~ 4, f 6;
#X obj 853 985 *~ 4, f 7;
#X obj 962 859 / 20;
#X text 817 425 amplitude [0-30], f 15;
#X obj 800 1080 lop~ 200, f 10;
#X obj 778 1040 hip~ 50;
#X obj 748 768 / 255;
#X obj 812 768 / 255;
#X obj 782 839 line~;
#X connect 1 0 23 0;
#X connect 2 0 30 0;
#X connect 4 0 9 1;
#X connect 5 0 17 1;
#X connect 6 0 30 0;
#X connect 7 0 6 0;
#X connect 8 0 11 0;
#X connect 9 0 8 0;
#X connect 10 0 14 0;
#X connect 11 0 30 0;
#X connect 12 0 2 0;
#X connect 12 0 9 0;
#X connect 12 0 13 0;
#X connect 12 0 16 0;
#X connect 12 0 17 0;
#X connect 13 0 10 0;
#X connect 15 0 12 0;
#X connect 16 0 7 0;
#X connect 17 0 19 0;
#X connect 18 0 30 0;
#X connect 19 0 18 0;
#X connect 20 0 16 1;
#X connect 21 0 13 1;
#X connect 23 0 34 0;
#X connect 25 0 42 1;
#X connect 26 0 44 1;
#X connect 26 0 41 1;
#X connect 27 0 59 1;
#X connect 27 0 61 0;
#X connect 27 0 62 0;
#X connect 27 0 39 1;
#X connect 29 0 31 0;
#X connect 29 0 53 0;
#X connect 29 0 51 0;
#X connect 31 0 45 2;
#X connect 32 0 44 0;
#X connect 34 0 28 0;
#X connect 34 1 24 0;
#X connect 34 2 25 0;
#X connect 34 3 26 0;
#X connect 34 4 27 0;
#X connect 34 5 29 0;
#X connect 34 6 35 0;
#X connect 35 0 31 1;
#X connect 35 0 38 0;
#X connect 35 0 57 0;
#X connect 36 0 56 0;
#X connect 37 0 55 0;
#X connect 37 0 56 0;
#X connect 38 0 36 0;
#X connect 39 0 40 1;
#X connect 39 0 45 0;
#X connect 40 0 41 0;
#X connect 41 0 32 0;
#X connect 42 0 32 1;
#X connect 42 0 43 0;
#X connect 43 0 44 0;
#X connect 44 0 37 0;
#X connect 44 0 55 0;
#X connect 44 0 56 0;
#X connect 45 0 41 0;
#X connect 50 0 0 0;
#X connect 50 0 33 0;
#X connect 50 1 0 0;
#X connect 50 1 33 1;
#X connect 51 0 50 0;
#X connect 52 0 50 0;
#X connect 53 0 50 0;
#X connect 55 0 60 0;
#X connect 56 0 60 0;
#X connect 57 0 52 0;
#X connect 57 0 36 1;
#X connect 59 0 50 0;
#X connect 59 0 50 1;
#X connect 60 0 59 0;
#X connect 61 0 55 1;
#X connect 61 0 60 1;
#X connect 61 0 63 0;
#X connect 62 0 56 1;
#X connect 63 0 37 1;
