#N canvas 434 25 1039 847 12;
#X obj 129 222 *~ 2;
#X obj 130 263 -~ 1;
#X obj 132 337 vcf~ 1;
#X obj 188 306 sig~;
#X obj 130 379 *~ 0.1;
#X obj 132 418 dac~;
#X floatatom 237 354 5 0 1 0 Volume - - 0;
#X floatatom 350 171 5 0 10000 0 modulation\ freq. - - 0;
#X obj 335 209 osc~;
#X obj 319 277 *~;
#X floatatom 463 246 5 0 0 0 modulation\ amount - - 0;
#X text 183 257 press to start;
#X obj 130 170 phasor~ 20;
#X obj 315 312 +~ 20;
#X floatatom 473 517 5 0 0 0 - - - 0;
#X obj 471 578 osc~;
#X obj 478 657 dac~;
#X obj 474 622 *~ 2;
#X floatatom 534 517 5 0 0 0 - - - 0;
#X obj 531 578 osc~;
#X obj 538 657 dac~;
#X obj 534 622 *~ 2;
#X msg 188 280 100;
#X connect 0 0 1 0;
#X connect 1 0 2 0;
#X connect 2 0 4 0;
#X connect 3 0 2 1;
#X connect 4 0 5 0;
#X connect 4 0 5 1;
#X connect 6 0 4 1;
#X connect 7 0 8 0;
#X connect 8 0 9 0;
#X connect 9 0 13 0;
#X connect 10 0 9 1;
#X connect 12 0 0 0;
#X connect 13 0 12 0;
#X connect 14 0 15 0;
#X connect 15 0 17 0;
#X connect 17 0 16 0;
#X connect 18 0 19 0;
#X connect 19 0 21 0;
#X connect 21 0 20 0;
#X connect 22 0 3 0;
