#N canvas 827 239 527 327 12;
#X obj 314 1417 graph~;
#X obj 143 1054 bl.saw~ 2;
#X obj 361 1127 saw~ 40;
#X obj 658 56 netreceive -u 11999;
#X obj 1987 559 osc~;
#X obj 1932 753 dac~;
#X msg 2250 347 400, f 6;
#X msg 2376 347 400, f 6;
#X obj 2102 618 *~ 0.75, f 9;
#X obj 2102 576 osc~, f 9;
#X obj 2210 576 osc~, f 9;
#X obj 2210 522 * 8, f 9;
#X obj 2428 575 osc~, f 9;
#X obj 2210 618 *~ 0.5, f 8;
#X floatatom 1868 423 8 0 0 0 empty - - 36;
#X obj 2428 522 * 4, f 9;
#X obj 2428 618 *~ 0.7, f 8;
#X obj 1899 358 hsl 128 17 0 127 0 0 empty empty empty -2 -8 0 10 #191919 #e1e1e1 #e1e1e1 0 1;
#X obj 2102 522 * 0.2, f 9;
#X obj 2338 522 * 0.16, f 9;
#X obj 2338 618 *~ 0.05, f 9;
#X obj 2338 575 osc~, f 9;
#X msg 2144 347 27, f 5;
#X msg 2468 347 400, f 6;
#X text 551 343 message, f 13;
#X obj 658 134 list trim, f 12;
#X text 817 433 amplitude, f 11;
#X text 798 402 violence, f 9;
#X text 857 500 interval, f 10;
#X text 786 373 time, f 5;
#X floatatom 684 378 7 0 0 0 - - - 12;
#X floatatom 710 410 5 0 0 0 - - - 12;
#X floatatom 736 444 6 0 0 0 - - - 12;
#X floatatom 763 471 5 0 0 0 - - - 12;
#X floatatom 658 350 5 0 0 0 - - - 12;
#X obj 236 1054 saw~ 400;
#X obj 618 471 pack f 50;
#X obj 314 1345 osc~;
#X floatatom 790 511 5 0 0 0 - - - 12;
#X text 837 466 opacity, f 8;
#X obj 314 1237 *~;
#X obj 143 979 osc~;
#X obj 1938 694 *~ 0.2;
#X obj 236 1127 osc~;
#X obj 637 592 line~;
#X obj 361 1185 echo.rev~;
#X obj 237 1185 bl.saw~ 400;
#X obj 518 495 env~;
#X obj 314 1296 phaser~, f 12;
#X obj 637 739 osc~ 27;
#X obj 327 686 bl.saw~ 2;
#X obj 637 814 saw~ 40;
#X obj 519 739 osc~ 36;
#X obj 426 602 osc~ 8;
#X obj 519 814 bl.saw~ 4;
#X obj 518 686 saw~ 40;
#X obj 637 885 osc~ 36;
#X obj 771 1096 dac~;
#X obj 834 1003 *~ 1;
#X obj 719 1004 *~ 1;
#X obj 658 181 unpack f f f f f f f, f 22;
#X floatatom 827 543 5 0 0 0 - - - 12;
#X text 894 532 speed, f 10;
#X obj 895 897 echo.rev~;
#X obj 557 959 phaser~, f 12;
#X obj 931 652 line~;
#X connect 1 0 43 0;
#X connect 2 0 45 0;
#X connect 3 0 25 0;
#X connect 4 0 42 0;
#X connect 6 0 11 1;
#X connect 7 0 19 1;
#X connect 8 0 42 0;
#X connect 9 0 8 0;
#X connect 10 0 13 0;
#X connect 11 0 10 0;
#X connect 12 0 16 0;
#X connect 13 0 42 0;
#X connect 14 0 4 0;
#X connect 14 0 11 0;
#X connect 14 0 15 0;
#X connect 14 0 18 0;
#X connect 14 0 19 0;
#X connect 15 0 12 0;
#X connect 17 0 14 0;
#X connect 18 0 9 0;
#X connect 19 0 21 0;
#X connect 20 0 42 0;
#X connect 21 0 20 0;
#X connect 22 0 18 1;
#X connect 23 0 15 1;
#X connect 25 0 60 0;
#X connect 31 0 49 1;
#X connect 32 0 36 1;
#X connect 33 0 36 0;
#X connect 33 0 59 1;
#X connect 33 0 58 1;
#X connect 35 0 43 0;
#X connect 36 0 53 1;
#X connect 37 0 0 0;
#X connect 38 0 44 0;
#X connect 40 0 48 0;
#X connect 41 0 1 0;
#X connect 43 0 46 0;
#X connect 44 0 50 1;
#X connect 45 0 40 1;
#X connect 46 0 40 0;
#X connect 48 0 37 0;
#X connect 49 0 51 0;
#X connect 49 0 54 1;
#X connect 50 0 52 0;
#X connect 51 0 56 0;
#X connect 52 0 54 0;
#X connect 53 0 50 0;
#X connect 53 0 55 1;
#X connect 54 0 56 0;
#X connect 55 0 52 0;
#X connect 56 0 58 0;
#X connect 56 0 64 0;
#X connect 56 0 59 0;
#X connect 58 0 57 1;
#X connect 59 0 57 0;
#X connect 60 0 34 0;
#X connect 60 1 30 0;
#X connect 60 2 31 0;
#X connect 60 3 32 0;
#X connect 60 4 33 0;
#X connect 60 5 38 0;
#X connect 60 6 61 0;
#X connect 61 0 44 1;
#X connect 61 0 65 0;
#X connect 63 0 58 0;
#X connect 64 0 59 0;
#X connect 65 0 63 0;
