#N canvas 827 239 527 327 12;
#X obj 658 56 netreceive -u 11999;
#X obj 1987 559 osc~;
#X obj 1932 753 dac~;
#X msg 2250 347 400, f 6;
#X msg 2376 347 400, f 6;
#X obj 2102 618 *~ 0.75, f 9;
#X obj 2102 576 osc~, f 9;
#X obj 2210 576 osc~, f 9;
#X obj 2210 522 * 8, f 9;
#X obj 2428 575 osc~, f 9;
#X obj 2210 618 *~ 0.5, f 8;
#X floatatom 1868 423 8 0 0 0 empty - - 36;
#X obj 2428 522 * 4, f 9;
#X obj 2428 618 *~ 0.7, f 8;
#X obj 1899 358 hsl 128 17 0 127 0 0 empty empty empty -2 -8 0 10 #191919 #e1e1e1 #e1e1e1 0 1;
#X obj 2102 522 * 0.2, f 9;
#X obj 2338 522 * 0.16, f 9;
#X obj 2338 618 *~ 0.05, f 9;
#X obj 2338 575 osc~, f 9;
#X msg 2144 347 27, f 5;
#X msg 2468 347 400, f 6;
#X text 822 237 message, f 9;
#X obj 658 106 list trim, f 12;
#X text 882 333 amplitude, f 11;
#X text 863 301 violence, f 9;
#X text 922 398 interval, f 10;
#X text 851 269 time, f 5;
#X floatatom 678 276 7 0 0 0 - - - 12;
#X floatatom 700 308 5 0 0 0 - - - 12;
#X floatatom 722 340 6 0 0 0 - - - 12;
#X floatatom 743 373 5 0 0 0 - - - 12;
#X floatatom 658 244 5 0 0 0 - - - 12;
#X floatatom 765 405 5 0 0 0 - - - 12;
#X text 902 366 opacity, f 8;
#X obj 1938 694 *~ 0.2;
#X obj 658 181 unpack f f f f f f f, f 22;
#X floatatom 788 438 5 0 0 0 - - - 12;
#X text 959 431 speed, f 10;
#X obj 287 1208 dac~, f 5;
#X obj 287 1147 *~ 0.5, f 5;
#X text 126 458 BASS DRONE;
#X obj 182 508 osc~ 60;
#X obj 282 508 osc~ 60.5;
#X obj 382 508 osc~ 59.7;
#X obj 182 694 *~ 0.33;
#X obj 282 694 *~ 0.33;
#X obj 382 694 *~ 0.33;
#X obj 182 761 +~;
#X obj 182 800 +~;
#X obj 482 677 phasor~ 30;
#X obj 482 761 *~ 0.2;
#X obj 282 902 +~;
#X obj 482 410 sig~;
#X obj 482 829 osc~ 0.1;
#X obj 482 874 *~ 0.3;
#X obj 482 923 +~ 0.7;
#X obj 367 1016 hsl 128 19 0 1 0 0 empty empty volume -2 -8 0 10 #fcfcfc #000000 #000000 0 1;
#X obj 482 358 * 10;
#X obj 589 438 / 100;
#X msg 605 655 0;
#X obj 283 982 *~, f 5;
#X obj 182 852 lop~ 200;
#X obj 554 989 rev1~;
#X obj 856 1072 chorus~;
#X obj 456 1071 chorus~;
#X text 867 1099 clown theme;
#X obj 364 1109 rev1~;
#X connect 0 0 22 0;
#X connect 1 0 34 0;
#X connect 3 0 8 1;
#X connect 4 0 16 1;
#X connect 5 0 34 0;
#X connect 6 0 5 0;
#X connect 7 0 10 0;
#X connect 8 0 7 0;
#X connect 9 0 13 0;
#X connect 10 0 34 0;
#X connect 11 0 1 0;
#X connect 11 0 8 0;
#X connect 11 0 12 0;
#X connect 11 0 15 0;
#X connect 11 0 16 0;
#X connect 12 0 9 0;
#X connect 14 0 11 0;
#X connect 15 0 6 0;
#X connect 16 0 18 0;
#X connect 17 0 34 0;
#X connect 18 0 17 0;
#X connect 19 0 15 1;
#X connect 20 0 12 1;
#X connect 22 0 35 0;
#X connect 28 0 57 0;
#X connect 28 0 63 1;
#X connect 28 0 64 2;
#X connect 30 0 58 0;
#X connect 30 0 62 1;
#X connect 30 0 63 2;
#X connect 30 0 64 3;
#X connect 32 0 63 3;
#X connect 32 0 62 2;
#X connect 35 0 31 0;
#X connect 35 1 27 0;
#X connect 35 2 28 0;
#X connect 35 3 29 0;
#X connect 35 4 30 0;
#X connect 35 5 32 0;
#X connect 35 6 36 0;
#X connect 39 0 38 0;
#X connect 39 0 38 1;
#X connect 41 0 44 0;
#X connect 42 0 45 0;
#X connect 43 0 46 0;
#X connect 44 0 47 0;
#X connect 45 0 47 1;
#X connect 46 0 48 1;
#X connect 47 0 48 0;
#X connect 48 0 61 0;
#X connect 49 0 50 0;
#X connect 51 0 60 0;
#X connect 52 0 43 0;
#X connect 52 0 42 0;
#X connect 52 0 41 0;
#X connect 53 0 54 0;
#X connect 54 0 55 0;
#X connect 55 0 60 1;
#X connect 56 0 39 1;
#X connect 56 0 66 1;
#X connect 57 0 52 0;
#X connect 59 0 49 1;
#X connect 60 0 63 0;
#X connect 60 0 64 0;
#X connect 61 0 51 0;
#X connect 63 0 39 0;
#X connect 64 0 66 0;
